<mxfile host="app.diagrams.net" modified="2023-04-10T10:52:58.744Z" agent="Mozilla/5.0 (Macintosh; Intel Mac OS X 10.15; rv:109.0) Gecko/20100101 Firefox/111.0" etag="jhOjpByH13rfh2U0T4BH" version="21.1.5" type="github">
  <diagram id="R2lEEEUBdFMjLlhIrx00" name="Page-1">
    <mxGraphModel dx="661" dy="458" grid="1" gridSize="10" guides="1" tooltips="1" connect="1" arrows="1" fold="1" page="1" pageScale="1" pageWidth="850" pageHeight="1100" math="0" shadow="0" extFonts="Permanent Marker^https://fonts.googleapis.com/css?family=Permanent+Marker">
      <root>
        <mxCell id="0" />
        <mxCell id="1" parent="0" />
        <mxCell id="rcFKjRx6TF9m-zaaV3Gp-4" style="edgeStyle=orthogonalEdgeStyle;rounded=0;orthogonalLoop=1;jettySize=auto;html=1;entryX=0.358;entryY=0;entryDx=0;entryDy=0;entryPerimeter=0;" edge="1" parent="1" source="rcFKjRx6TF9m-zaaV3Gp-1" target="rcFKjRx6TF9m-zaaV3Gp-3">
          <mxGeometry relative="1" as="geometry" />
        </mxCell>
        <mxCell id="rcFKjRx6TF9m-zaaV3Gp-5" style="edgeStyle=orthogonalEdgeStyle;rounded=0;orthogonalLoop=1;jettySize=auto;html=1;entryX=0.675;entryY=-0.05;entryDx=0;entryDy=0;entryPerimeter=0;" edge="1" parent="1" source="rcFKjRx6TF9m-zaaV3Gp-1" target="rcFKjRx6TF9m-zaaV3Gp-2">
          <mxGeometry relative="1" as="geometry" />
        </mxCell>
        <mxCell id="rcFKjRx6TF9m-zaaV3Gp-1" value="Credit" style="rounded=0;whiteSpace=wrap;html=1;" vertex="1" parent="1">
          <mxGeometry x="310" y="50" width="120" height="60" as="geometry" />
        </mxCell>
        <mxCell id="rcFKjRx6TF9m-zaaV3Gp-2" value="Transactions" style="rounded=0;whiteSpace=wrap;html=1;" vertex="1" parent="1">
          <mxGeometry x="150" y="140" width="120" height="60" as="geometry" />
        </mxCell>
        <mxCell id="rcFKjRx6TF9m-zaaV3Gp-7" style="edgeStyle=orthogonalEdgeStyle;rounded=0;orthogonalLoop=1;jettySize=auto;html=1;" edge="1" parent="1" source="rcFKjRx6TF9m-zaaV3Gp-3" target="rcFKjRx6TF9m-zaaV3Gp-6">
          <mxGeometry relative="1" as="geometry" />
        </mxCell>
        <mxCell id="rcFKjRx6TF9m-zaaV3Gp-12" style="edgeStyle=orthogonalEdgeStyle;rounded=0;orthogonalLoop=1;jettySize=auto;html=1;entryX=0;entryY=0.5;entryDx=0;entryDy=0;" edge="1" parent="1" source="rcFKjRx6TF9m-zaaV3Gp-3" target="rcFKjRx6TF9m-zaaV3Gp-11">
          <mxGeometry relative="1" as="geometry" />
        </mxCell>
        <mxCell id="rcFKjRx6TF9m-zaaV3Gp-3" value="&lt;div&gt;Schedule&lt;/div&gt;" style="rounded=0;whiteSpace=wrap;html=1;" vertex="1" parent="1">
          <mxGeometry x="520" y="160" width="120" height="60" as="geometry" />
        </mxCell>
        <mxCell id="rcFKjRx6TF9m-zaaV3Gp-8" style="edgeStyle=orthogonalEdgeStyle;rounded=0;orthogonalLoop=1;jettySize=auto;html=1;" edge="1" parent="1" source="rcFKjRx6TF9m-zaaV3Gp-6" target="rcFKjRx6TF9m-zaaV3Gp-10">
          <mxGeometry relative="1" as="geometry">
            <mxPoint x="570" y="360" as="targetPoint" />
          </mxGeometry>
        </mxCell>
        <mxCell id="rcFKjRx6TF9m-zaaV3Gp-6" value="Remove" style="rounded=1;whiteSpace=wrap;html=1;" vertex="1" parent="1">
          <mxGeometry x="390" y="260" width="120" height="60" as="geometry" />
        </mxCell>
        <mxCell id="rcFKjRx6TF9m-zaaV3Gp-10" value="&lt;div&gt;schedule_pre_initial_payment&lt;/div&gt;&lt;div&gt;schedule_mixed_payment&lt;br&gt;&lt;/div&gt;" style="rounded=0;whiteSpace=wrap;html=1;" vertex="1" parent="1">
          <mxGeometry x="370" y="350" width="180" height="60" as="geometry" />
        </mxCell>
        <mxCell id="rcFKjRx6TF9m-zaaV3Gp-15" style="edgeStyle=orthogonalEdgeStyle;rounded=0;orthogonalLoop=1;jettySize=auto;html=1;" edge="1" parent="1" source="rcFKjRx6TF9m-zaaV3Gp-11" target="rcFKjRx6TF9m-zaaV3Gp-14">
          <mxGeometry relative="1" as="geometry" />
        </mxCell>
        <mxCell id="rcFKjRx6TF9m-zaaV3Gp-11" value="dublicat" style="rounded=0;whiteSpace=wrap;html=1;" vertex="1" parent="1">
          <mxGeometry x="590" y="250" width="120" height="60" as="geometry" />
        </mxCell>
        <mxCell id="rcFKjRx6TF9m-zaaV3Gp-14" value="&lt;div&gt;schedule_cup_payment&lt;/div&gt;&lt;div&gt;schedule_actual_payment&lt;br&gt;&lt;/div&gt;" style="rounded=0;whiteSpace=wrap;html=1;" vertex="1" parent="1">
          <mxGeometry x="590" y="350" width="180" height="60" as="geometry" />
        </mxCell>
        <mxCell id="rcFKjRx6TF9m-zaaV3Gp-18" style="edgeStyle=orthogonalEdgeStyle;rounded=0;orthogonalLoop=1;jettySize=auto;html=1;entryX=1;entryY=0.5;entryDx=0;entryDy=0;" edge="1" parent="1" source="rcFKjRx6TF9m-zaaV3Gp-17" target="rcFKjRx6TF9m-zaaV3Gp-1">
          <mxGeometry relative="1" as="geometry">
            <Array as="points">
              <mxPoint x="675" y="180" />
              <mxPoint x="675" y="80" />
            </Array>
          </mxGeometry>
        </mxCell>
        <mxCell id="rcFKjRx6TF9m-zaaV3Gp-20" style="edgeStyle=orthogonalEdgeStyle;rounded=0;orthogonalLoop=1;jettySize=auto;html=1;entryX=0.5;entryY=0;entryDx=0;entryDy=0;" edge="1" parent="1" source="rcFKjRx6TF9m-zaaV3Gp-17" target="rcFKjRx6TF9m-zaaV3Gp-19">
          <mxGeometry relative="1" as="geometry" />
        </mxCell>
        <mxCell id="rcFKjRx6TF9m-zaaV3Gp-17" value="Modifikator" style="rounded=0;whiteSpace=wrap;html=1;" vertex="1" parent="1">
          <mxGeometry x="920" y="160" width="120" height="60" as="geometry" />
        </mxCell>
        <mxCell id="rcFKjRx6TF9m-zaaV3Gp-22" style="edgeStyle=orthogonalEdgeStyle;rounded=0;orthogonalLoop=1;jettySize=auto;html=1;entryX=0.5;entryY=0;entryDx=0;entryDy=0;" edge="1" parent="1" source="rcFKjRx6TF9m-zaaV3Gp-19" target="rcFKjRx6TF9m-zaaV3Gp-21">
          <mxGeometry relative="1" as="geometry" />
        </mxCell>
        <mxCell id="rcFKjRx6TF9m-zaaV3Gp-19" value="Remove" style="rounded=0;whiteSpace=wrap;html=1;" vertex="1" parent="1">
          <mxGeometry x="920" y="250" width="120" height="60" as="geometry" />
        </mxCell>
        <mxCell id="rcFKjRx6TF9m-zaaV3Gp-21" value="CREDIT_DELAYS" style="rounded=0;whiteSpace=wrap;html=1;" vertex="1" parent="1">
          <mxGeometry x="920" y="340" width="120" height="60" as="geometry" />
        </mxCell>
      </root>
    </mxGraphModel>
  </diagram>
</mxfile>
